HIERARCHY
ROOT Hips
{
	OFFSET 0.00 0.00 0.00
	CHANNELS 6 Xposition Yposition Zposition Yrotation Xrotation Zrotation
	JOINT LHipJoint
	{
		OFFSET	0.0000	0.0000	0.0000
		CHANNELS 3 Yrotation Xrotation Zrotation
		JOINT LeftUpLeg
		{
			OFFSET	1.0138	-0.0809	-0.0827
			CHANNELS 3 Yrotation Xrotation Zrotation
			JOINT LeftLeg
			{
				OFFSET	0.4110	-3.9095	0.3245
				CHANNELS 3 Yrotation Xrotation Zrotation
				JOINT LeftFoot
				{
					OFFSET	0.3810	-4.0555	-0.1470
					CHANNELS 3 Yrotation Xrotation Zrotation
					JOINT LeftToeBase
					{
						OFFSET	0.1396	-0.4462	1.3079
						CHANNELS 3 Yrotation Xrotation Zrotation
						End Site
						{
							OFFSET 0.0161 -0.0248 0.1809
						}
					}
				}
			}
		}
	}
	JOINT LowerBack
	{
		OFFSET	0.0000	0.7977	-0.3873
		CHANNELS 3 Yrotation Xrotation Zrotation
		JOINT Spine
		{
			OFFSET	0.0000	1.4131	0.1715
			CHANNELS 3 Yrotation Xrotation Zrotation
			JOINT Spine1
			{
				OFFSET	0.0000	1.4392	-0.1032
				CHANNELS 3 Yrotation Xrotation Zrotation
				JOINT LeftShoulder
				{
					OFFSET	0.2274	1.0382	0.4032
					CHANNELS 3 Yrotation Xrotation Zrotation
					JOINT LeftArm
					{
						OFFSET	1.4730	-0.2267	-0.0231
						CHANNELS 3 Yrotation Xrotation Zrotation
						JOINT LeftForeArm
						{
							OFFSET	1.6131	-1.8059	0.0081
							CHANNELS 3 Yrotation Xrotation Zrotation
							JOINT LeftHand
							{
								OFFSET	1.2197	-1.2423	1.6317
								CHANNELS 3 Yrotation Xrotation Zrotation
								JOINT LThumb
								{
									OFFSET	0.0109	-0.0753	0.4387
									CHANNELS 3 Yrotation Xrotation Zrotation
									End Site
									{
										OFFSET -0.2090 -0.0868 0.2097
									}
								}
								JOINT LeftFingerBase
								{
									OFFSET	0.1071	-0.1567	0.2607
									CHANNELS 3 Yrotation Xrotation Zrotation
									JOINT LeftHandFinger1
									{
										OFFSET	0.1706	-0.2492	0.6830
										CHANNELS 3 Yrotation Xrotation Zrotation
										End Site
										{
											OFFSET 0.0335 -0.1507 0.2071
										}
									}
								}
							}
						}
					}
				}
				JOINT Neck
				{
					OFFSET	0.0000	1.7498	0.2381
					CHANNELS 3 Yrotation Xrotation Zrotation
					JOINT Neck1
					{
						OFFSET	0.0000	0.5043	0.1959
						CHANNELS 3 Yrotation Xrotation Zrotation
						JOINT Head
						{
							OFFSET	0.0000	0.5044	0.1959
							CHANNELS 3 Yrotation Xrotation Zrotation
							End Site
							{
								OFFSET 0.0000 1.4798 -0.0693
							}
						}
					}
				}
				JOINT RightShoulder
				{
					OFFSET	-0.2274	1.0382	0.4032
					CHANNELS 3 Yrotation Xrotation Zrotation
					JOINT RightArm
					{
						OFFSET	-1.4730	-0.2267	-0.0231
						CHANNELS 3 Yrotation Xrotation Zrotation
						JOINT RightForeArm
						{
							OFFSET	-1.6131	-1.8059	0.0081
							CHANNELS 3 Yrotation Xrotation Zrotation
							JOINT RightHand
							{
								OFFSET	-1.2197	-1.2423	1.6317
								CHANNELS 3 Yrotation Xrotation Zrotation
								JOINT RThumb
								{
									OFFSET	-0.0109	-0.0753	0.4387
									CHANNELS 3 Yrotation Xrotation Zrotation
									End Site
									{
										OFFSET 0.2090 -0.0868 0.2097
									}
								}
								JOINT RightFingerBase
								{
									OFFSET	-0.1071	-0.1567	0.2607
									CHANNELS 3 Yrotation Xrotation Zrotation
									JOINT RightHandFinger1
									{
										OFFSET	-0.1706	-0.2492	0.6830
										CHANNELS 3 Yrotation Xrotation Zrotation
										End Site
										{
											OFFSET -0.0335 -0.1507 0.2071
										}
									}
								}
							}
						}
					}
				}
			}
		}
	}
	JOINT RHipJoint
	{
		OFFSET	0.0000	0.0000	0.0000
		CHANNELS 3 Yrotation Xrotation Zrotation
		JOINT RightUpLeg
		{
			OFFSET	-1.0138	-0.0809	-0.0827
			CHANNELS 3 Yrotation Xrotation Zrotation
			JOINT RightLeg
			{
				OFFSET	-0.4110	-3.9095	0.3245
				CHANNELS 3 Yrotation Xrotation Zrotation
				JOINT RightFoot
				{
					OFFSET	-0.3810	-4.0555	-0.1470
					CHANNELS 3 Yrotation Xrotation Zrotation
					JOINT RightToeBase
					{
						OFFSET	-0.1396	-0.4462	1.3079
						CHANNELS 3 Yrotation Xrotation Zrotation
						End Site
						{
							OFFSET -0.0161 -0.0248 0.1809
						}
					}
				}
			}
		}
	}
}
MOTION
Frames: 7
Frame Time: 0.0333333
0.4332 3.5324 -1.5981 -6.5664 51.2475 -11.6593 0.0000 -0.0000 0.0000 2.7499 -27.2921 -10.9340 66.8988 57.3678 62.1497 12.8445 20.8705 15.6752 1.7667 10.6906 8.6286 0.0000 -0.0000 0.0000 -4.6842 14.6849 1.5301 -7.7035 29.5871 3.5468 -27.2205 1.7834 5.6944 -29.7769 -48.1959 35.7376 4.4815 6.1698 -1.7796 3.6774 -38.5887 77.9789 24.5716 3.2267 -11.2004 5.4687 11.9588 -0.6797 -1.3760 -9.5470 1.4435 1.5316 -2.6712 2.7251 1.6817 -13.7447 3.3601 10.5734 -12.4162 -9.9444 15.9410 1.9940 -10.2824 59.3564 -48.4521 -50.2336 13.9920 -14.0121 0.1065 48.2918 58.4895 52.0473 -33.4418 -1.1944 -5.1784 3.7074 23.5586 9.0450 16.0580 6.0055 10.7239 0.0000 -0.0000 0.0000 -155.3372 -74.7623 157.5580 -163.3617 41.3242 -162.9216 -1.2270 8.0991 -15.0834 -9.1357 25.6073 -14.4553 
0.4026 3.4836 -1.5663 -4.8033 51.2830 -10.0147 0.0000 -0.0000 0.0000 2.9165 -24.1044 -10.9770 60.8264 55.5855 56.3617 13.1713 21.8900 17.4194 1.7041 10.2495 8.5100 0.0000 -0.0000 0.0000 -4.6962 14.5544 1.6593 -7.6435 29.3489 3.9692 -27.2021 1.3431 4.0148 -30.2254 -47.0982 34.2642 4.6067 6.3082 -1.7685 1.2093 -39.3739 80.0531 24.5713 3.2278 -11.2019 5.4676 11.9596 -0.6805 -1.3760 -9.5470 1.4435 1.4270 -3.1762 3.2053 1.4874 -14.2433 3.8698 10.4324 -10.6361 -10.5770 15.6186 2.3579 -12.9683 67.9767 -51.4979 -60.8712 11.4365 -11.3686 0.7177 49.3978 59.7864 55.7520 -33.4114 -1.1737 -5.1033 3.6863 23.4883 9.0184 15.9811 5.9406 10.6573 0.0000 -0.0000 0.0000 -154.7820 -76.7169 157.1939 -161.6987 41.4089 -161.7455 -1.9036 10.7645 -17.6708 -9.0880 23.7986 -14.8883 
0.3509 3.4417 -1.5387 -2.8712 51.7642 -8.2597 0.0000 -0.0000 0.0000 3.2378 -21.4288 -10.7520 55.1176 53.4787 51.0140 13.1053 22.6432 19.5375 1.6531 9.9904 8.4026 0.0000 -0.0000 0.0000 -4.4712 14.3971 1.8051 -7.1055 29.0456 4.5053 -26.5108 0.9914 2.6206 -31.9411 -46.7125 32.7780 4.6719 6.3803 -1.7627 -2.1545 -39.5889 82.7471 24.5706 3.2348 -11.2117 5.4623 11.9650 -0.6848 -1.3760 -9.5470 1.4435 1.1839 -3.8201 3.5748 1.1737 -14.8816 4.2687 9.6619 -8.8792 -10.5875 15.5167 2.7536 -15.4231 76.3449 -54.7364 -71.7949 9.1263 -8.9121 1.1702 43.5236 63.4877 50.5163 -33.4153 -1.1766 -5.1134 3.6889 23.4973 9.0217 15.9911 5.9490 10.6660 0.0000 -0.0000 0.0000 -152.4594 -79.1877 155.0367 -160.5585 42.2186 -160.9087 -2.5726 13.7889 -19.1628 -7.9705 21.8405 -14.0504 
0.2882 3.4094 -1.5210 -1.0266 52.5307 -6.5382 0.0000 -0.0000 0.0000 3.6116 -19.1392 -10.2909 49.8572 51.0036 45.9483 12.7816 23.5292 21.7499 1.6187 9.7637 8.3243 0.0000 -0.0000 0.0000 -3.9144 14.3057 1.9895 -5.8925 28.8483 5.1840 -25.3160 0.7689 1.6146 -34.9534 -47.6579 31.2715 4.9732 6.7127 -1.7344 -6.8365 -39.0484 86.0532 24.5711 3.2366 -11.2142 5.4616 11.9667 -0.6857 -1.3760 -9.5470 1.4435 0.8144 -4.5305 3.6209 0.7923 -15.5900 4.3354 8.1334 -7.3162 -9.7960 15.8263 3.2898 -17.8698 84.8599 -58.2392 -83.4707 7.0993 -6.7136 1.4864 26.3792 67.7273 31.7043 -33.4119 -1.1741 -5.1047 3.6865 23.4893 9.0187 15.9823 5.9416 10.6584 0.0000 -0.0000 0.0000 -147.2858 -81.7524 149.8881 -157.9609 42.7764 -159.1604 -2.6432 14.9196 -19.7027 -7.0135 19.8369 -13.6141 
0.2205 3.3899 -1.5195 0.1761 53.5494 -5.3662 0.0000 -0.0000 0.0000 3.9800 -17.2934 -9.5168 45.2001 48.2592 41.1013 12.5620 24.9945 23.5828 1.6040 9.3372 8.3007 0.0000 -0.0000 0.0000 -2.9708 14.2779 2.2638 -3.8682 28.7395 6.1173 -23.6036 0.7088 1.1183 -38.6816 -50.7242 29.1006 5.7261 7.5412 -1.6562 -13.2991 -37.4329 89.9132 24.5735 3.2170 -11.1867 5.4772 11.9517 -0.6732 -1.3760 -9.5470 1.4435 0.3710 -5.2375 3.2668 0.4104 -16.2998 3.9846 5.9970 -6.1671 -8.4100 16.4292 3.9721 -20.3890 92.8469 -60.8679 -95.3032 5.3291 -4.7675 1.6993 -4.4752 65.7988 -3.3072 -33.3628 -1.1399 -4.9822 3.6529 23.3757 8.9759 15.8578 5.8361 10.5507 0.0000 -0.0000 0.0000 -133.3030 -84.0757 135.9309 -153.0792 42.8167 -155.8769 -2.3795 13.7610 -20.0830 -6.7772 17.6850 -13.9945 
0.1458 3.3883 -1.5369 0.6893 54.9420 -4.8975 0.0000 -0.0000 0.0000 4.2544 -16.3658 -8.4626 41.4846 45.6653 36.9091 12.9249 27.1267 24.6873 1.5980 8.5158 8.3373 0.0000 -0.0000 0.0000 -1.7639 14.2080 2.6326 -1.2909 28.5035 7.2739 -21.4321 0.8046 1.2125 -41.8404 -55.7897 25.4526 6.8808 8.8037 -1.5153 -21.1185 -34.7163 93.8406 24.5737 3.1976 -11.1597 5.4904 11.9359 -0.6619 -1.3760 -9.5470 1.4436 -0.0911 -5.8855 2.6999 0.0506 -16.9532 3.4038 3.6623 -5.7157 -7.0038 16.9630 4.6997 -22.8860 97.5499 -62.0022 -104.2882 3.6697 -2.9265 1.8444 -23.2373 52.4766 -28.9860 -33.3676 -1.1433 -4.9942 3.6562 23.3868 8.9801 15.8700 5.8465 10.5613 0.0000 -0.0000 0.0000 -102.4627 -85.2748 105.1370 -147.1463 42.7584 -151.7257 -2.4603 11.1820 -19.9405 -7.7676 15.0820 -15.3544 
0.0639 3.4108 -1.5699 1.4685 56.7729 -4.2547 0.0000 -0.0000 0.0000 4.1375 -16.9388 -7.5058 38.8728 43.8756 33.9588 13.9569 29.7159 25.1585 1.6071 7.3205 8.4382 0.0000 -0.0000 0.0000 -0.6325 14.0187 2.9831 1.0897 28.0117 8.3024 -19.2045 0.9730 1.7874 -43.1247 -61.2905 20.2608 8.1051 10.1302 -1.3383 -28.8256 -31.5767 97.1418 24.5666 3.2436 -11.2246 5.4522 11.9706 -0.6919 -1.3759 -9.5471 1.4436 -0.5444 -6.4994 2.2356 -0.3157 -17.5725 2.9185 1.5415 -6.0543 -6.1311 17.0561 5.2583 -24.9977 97.7645 -62.1304 -108.4215 1.9244 -0.9787 1.9396 -25.7567 33.5341 -40.5455 -33.5332 -1.2589 -5.4090 3.7711 23.7719 9.1253 16.2929 6.2029 10.9272 0.0000 -0.0000 0.0000 -72.2059 -84.8031 74.5650 -142.9886 43.5085 -148.4238 -3.2531 9.2042 -18.3004 -10.2253 12.3195 -17.0203 
